<mxfile host="65bd71144e">
    <diagram id="C5RBs43oDa-KdzZeNtuy" name="Page-1">
        <mxGraphModel dx="1872" dy="563" grid="1" gridSize="10" guides="1" tooltips="1" connect="0" arrows="1" fold="1" page="1" pageScale="1" pageWidth="827" pageHeight="1169" math="0" shadow="0">
            <root>
                <mxCell id="WIyWlLk6GJQsqaUBKTNV-0"/>
                <mxCell id="WIyWlLk6GJQsqaUBKTNV-1" parent="WIyWlLk6GJQsqaUBKTNV-0"/>
                <mxCell id="M7CGMbNuYNeq0SnUNNgH-6" value="ทบทวนสัญลักษณ์" style="swimlane;fontFamily=Sarabun;fontSource=https%3A%2F%2Ffonts.googleapis.com%2Fcss%3Ffamily%3DSarabun;" parent="WIyWlLk6GJQsqaUBKTNV-1" vertex="1">
                    <mxGeometry x="-720" y="20" width="650" height="290" as="geometry"/>
                </mxCell>
                <mxCell id="M7CGMbNuYNeq0SnUNNgH-2" value="&lt;font data-font-src=&quot;https://fonts.googleapis.com/css?family=Sarabun&quot; face=&quot;Sarabun&quot;&gt;เริ่มต้น&lt;/font&gt;" style="ellipse;whiteSpace=wrap;html=1;" parent="M7CGMbNuYNeq0SnUNNgH-6" vertex="1">
                    <mxGeometry x="20" y="40" width="130" height="30" as="geometry"/>
                </mxCell>
                <mxCell id="M7CGMbNuYNeq0SnUNNgH-5" value="" style="endArrow=classic;html=1;rounded=0;" parent="M7CGMbNuYNeq0SnUNNgH-6" edge="1">
                    <mxGeometry width="50" height="50" relative="1" as="geometry">
                        <mxPoint x="84.5" y="70" as="sourcePoint"/>
                        <mxPoint x="84.5" y="120" as="targetPoint"/>
                    </mxGeometry>
                </mxCell>
                <mxCell id="M7CGMbNuYNeq0SnUNNgH-3" value="&lt;font face=&quot;Sarabun&quot;&gt;สิ้นสุด&lt;/font&gt;" style="ellipse;whiteSpace=wrap;html=1;" parent="M7CGMbNuYNeq0SnUNNgH-6" vertex="1">
                    <mxGeometry x="150" y="90" width="130" height="30" as="geometry"/>
                </mxCell>
                <mxCell id="M7CGMbNuYNeq0SnUNNgH-4" value="" style="endArrow=classic;html=1;rounded=0;" parent="M7CGMbNuYNeq0SnUNNgH-6" edge="1">
                    <mxGeometry width="50" height="50" relative="1" as="geometry">
                        <mxPoint x="214.5" y="40" as="sourcePoint"/>
                        <mxPoint x="214.5" y="90" as="targetPoint"/>
                    </mxGeometry>
                </mxCell>
                <mxCell id="mvioNwK95yMqdUQ73LqQ-0" value="กระบวนการ" style="rounded=0;whiteSpace=wrap;html=1;fontFamily=Sarabun;fontSource=https%3A%2F%2Ffonts.googleapis.com%2Fcss%3Ffamily%3DSarabun;" parent="M7CGMbNuYNeq0SnUNNgH-6" vertex="1">
                    <mxGeometry x="320" y="70" width="120" height="30" as="geometry"/>
                </mxCell>
                <mxCell id="mvioNwK95yMqdUQ73LqQ-1" value="" style="endArrow=classic;html=1;rounded=0;" parent="M7CGMbNuYNeq0SnUNNgH-6" edge="1">
                    <mxGeometry width="50" height="50" relative="1" as="geometry">
                        <mxPoint x="379" y="40" as="sourcePoint"/>
                        <mxPoint x="379.5" y="70" as="targetPoint"/>
                    </mxGeometry>
                </mxCell>
                <mxCell id="mvioNwK95yMqdUQ73LqQ-2" value="" style="endArrow=classic;html=1;rounded=0;" parent="M7CGMbNuYNeq0SnUNNgH-6" edge="1">
                    <mxGeometry width="50" height="50" relative="1" as="geometry">
                        <mxPoint x="379.75" y="100" as="sourcePoint"/>
                        <mxPoint x="380.25" y="130" as="targetPoint"/>
                    </mxGeometry>
                </mxCell>
                <mxCell id="mvioNwK95yMqdUQ73LqQ-3" value="ประโยคเงื่อนไข" style="rhombus;whiteSpace=wrap;html=1;fontFamily=Sarabun;fontSource=https%3A%2F%2Ffonts.googleapis.com%2Fcss%3Ffamily%3DSarabun;" parent="M7CGMbNuYNeq0SnUNNgH-6" vertex="1">
                    <mxGeometry x="490" y="60" width="100" height="60" as="geometry"/>
                </mxCell>
                <mxCell id="mvioNwK95yMqdUQ73LqQ-4" value="" style="endArrow=classic;html=1;rounded=0;" parent="M7CGMbNuYNeq0SnUNNgH-6" edge="1">
                    <mxGeometry width="50" height="50" relative="1" as="geometry">
                        <mxPoint x="539.71" y="30" as="sourcePoint"/>
                        <mxPoint x="540.21" y="60" as="targetPoint"/>
                    </mxGeometry>
                </mxCell>
                <mxCell id="mvioNwK95yMqdUQ73LqQ-5" value="" style="endArrow=classic;html=1;rounded=0;" parent="M7CGMbNuYNeq0SnUNNgH-6" edge="1">
                    <mxGeometry width="50" height="50" relative="1" as="geometry">
                        <mxPoint x="539.71" y="120" as="sourcePoint"/>
                        <mxPoint x="540" y="175" as="targetPoint"/>
                    </mxGeometry>
                </mxCell>
                <mxCell id="mvioNwK95yMqdUQ73LqQ-7" value="จริง" style="edgeLabel;html=1;align=center;verticalAlign=middle;resizable=0;points=[];fontFamily=Sarabun;fontSource=https%3A%2F%2Ffonts.googleapis.com%2Fcss%3Ffamily%3DSarabun;" parent="mvioNwK95yMqdUQ73LqQ-5" vertex="1" connectable="0">
                    <mxGeometry x="-0.4142" y="-1" relative="1" as="geometry">
                        <mxPoint as="offset"/>
                    </mxGeometry>
                </mxCell>
                <mxCell id="mvioNwK95yMqdUQ73LqQ-6" value="" style="endArrow=classic;html=1;rounded=0;exitX=1;exitY=0.5;exitDx=0;exitDy=0;" parent="M7CGMbNuYNeq0SnUNNgH-6" source="mvioNwK95yMqdUQ73LqQ-3" edge="1">
                    <mxGeometry width="50" height="50" relative="1" as="geometry">
                        <mxPoint x="620" y="95" as="sourcePoint"/>
                        <mxPoint x="610" y="175" as="targetPoint"/>
                        <Array as="points">
                            <mxPoint x="610" y="90"/>
                        </Array>
                    </mxGeometry>
                </mxCell>
                <mxCell id="mvioNwK95yMqdUQ73LqQ-8" value="&lt;font data-font-src=&quot;https://fonts.googleapis.com/css?family=Sarabun&quot; face=&quot;Sarabun&quot;&gt;เท็จ&lt;/font&gt;" style="edgeLabel;html=1;align=center;verticalAlign=middle;resizable=0;points=[];" parent="mvioNwK95yMqdUQ73LqQ-6" vertex="1" connectable="0">
                    <mxGeometry x="-0.0019" y="-2" relative="1" as="geometry">
                        <mxPoint as="offset"/>
                    </mxGeometry>
                </mxCell>
                <mxCell id="mvioNwK95yMqdUQ73LqQ-9" value="&lt;font data-font-src=&quot;https://fonts.googleapis.com/css?family=Sarabun&quot; face=&quot;Sarabun&quot;&gt;ฟังก์ชัน/โมดูล&lt;/font&gt;" style="shape=process;whiteSpace=wrap;html=1;backgroundOutline=1;" parent="M7CGMbNuYNeq0SnUNNgH-6" vertex="1">
                    <mxGeometry x="25" y="180" width="120" height="30" as="geometry"/>
                </mxCell>
                <mxCell id="mvioNwK95yMqdUQ73LqQ-11" value="" style="endArrow=classic;html=1;rounded=0;" parent="M7CGMbNuYNeq0SnUNNgH-6" edge="1">
                    <mxGeometry width="50" height="50" relative="1" as="geometry">
                        <mxPoint x="84.70999999999998" y="150" as="sourcePoint"/>
                        <mxPoint x="85.20999999999998" y="180" as="targetPoint"/>
                    </mxGeometry>
                </mxCell>
                <mxCell id="mvioNwK95yMqdUQ73LqQ-12" value="" style="endArrow=classic;html=1;rounded=0;" parent="M7CGMbNuYNeq0SnUNNgH-6" edge="1">
                    <mxGeometry width="50" height="50" relative="1" as="geometry">
                        <mxPoint x="84.70999999999998" y="210" as="sourcePoint"/>
                        <mxPoint x="85.20999999999998" y="240" as="targetPoint"/>
                    </mxGeometry>
                </mxCell>
                <mxCell id="mvioNwK95yMqdUQ73LqQ-13" value="" style="strokeWidth=2;html=1;shape=mxgraph.flowchart.start_2;whiteSpace=wrap;" parent="M7CGMbNuYNeq0SnUNNgH-6" vertex="1">
                    <mxGeometry x="205" y="185" width="20" height="20" as="geometry"/>
                </mxCell>
                <mxCell id="mvioNwK95yMqdUQ73LqQ-16" value="" style="endArrow=classic;html=1;rounded=0;" parent="M7CGMbNuYNeq0SnUNNgH-6" edge="1">
                    <mxGeometry width="50" height="50" relative="1" as="geometry">
                        <mxPoint x="214.70999999999998" y="155" as="sourcePoint"/>
                        <mxPoint x="215.20999999999998" y="185" as="targetPoint"/>
                    </mxGeometry>
                </mxCell>
                <mxCell id="mvioNwK95yMqdUQ73LqQ-17" value="" style="endArrow=classic;html=1;rounded=0;entryX=0;entryY=0.5;entryDx=0;entryDy=0;entryPerimeter=0;" parent="M7CGMbNuYNeq0SnUNNgH-6" target="mvioNwK95yMqdUQ73LqQ-13" edge="1">
                    <mxGeometry width="50" height="50" relative="1" as="geometry">
                        <mxPoint x="189.99999999999997" y="155" as="sourcePoint"/>
                        <mxPoint x="190.49999999999997" y="185" as="targetPoint"/>
                        <Array as="points">
                            <mxPoint x="190" y="180"/>
                        </Array>
                    </mxGeometry>
                </mxCell>
                <mxCell id="mvioNwK95yMqdUQ73LqQ-18" value="" style="endArrow=classic;html=1;rounded=0;entryX=1;entryY=0.5;entryDx=0;entryDy=0;entryPerimeter=0;" parent="M7CGMbNuYNeq0SnUNNgH-6" target="mvioNwK95yMqdUQ73LqQ-13" edge="1">
                    <mxGeometry width="50" height="50" relative="1" as="geometry">
                        <mxPoint x="239.99999999999997" y="155" as="sourcePoint"/>
                        <mxPoint x="240.49999999999997" y="185" as="targetPoint"/>
                        <Array as="points">
                            <mxPoint x="240" y="180"/>
                        </Array>
                    </mxGeometry>
                </mxCell>
                <mxCell id="mvioNwK95yMqdUQ73LqQ-19" value="" style="endArrow=classic;html=1;rounded=0;" parent="M7CGMbNuYNeq0SnUNNgH-6" edge="1">
                    <mxGeometry width="50" height="50" relative="1" as="geometry">
                        <mxPoint x="214.70999999999998" y="205" as="sourcePoint"/>
                        <mxPoint x="215.20999999999998" y="235" as="targetPoint"/>
                    </mxGeometry>
                </mxCell>
                <mxCell id="mvioNwK95yMqdUQ73LqQ-20" value="&lt;font data-font-src=&quot;https://fonts.googleapis.com/css?family=Sarabun&quot; face=&quot;Sarabun&quot;&gt;ตัวเชื่อม&lt;/font&gt;" style="text;html=1;align=center;verticalAlign=middle;resizable=0;points=[];autosize=1;strokeColor=none;fillColor=none;" parent="M7CGMbNuYNeq0SnUNNgH-6" vertex="1">
                    <mxGeometry x="220" y="190" width="60" height="30" as="geometry"/>
                </mxCell>
                <mxCell id="mvioNwK95yMqdUQ73LqQ-25" value="" style="endArrow=classic;html=1;rounded=0;" parent="M7CGMbNuYNeq0SnUNNgH-6" edge="1">
                    <mxGeometry width="50" height="50" relative="1" as="geometry">
                        <mxPoint x="353.71" y="165" as="sourcePoint"/>
                        <mxPoint x="354.21" y="195" as="targetPoint"/>
                    </mxGeometry>
                </mxCell>
                <mxCell id="mvioNwK95yMqdUQ73LqQ-21" value="" style="verticalLabelPosition=bottom;verticalAlign=top;html=1;shape=offPageConnector;rounded=0;size=0.5;" parent="M7CGMbNuYNeq0SnUNNgH-6" vertex="1">
                    <mxGeometry x="339" y="195" width="30" height="30" as="geometry"/>
                </mxCell>
                <mxCell id="mvioNwK95yMqdUQ73LqQ-26" value="" style="endArrow=classic;html=1;rounded=0;" parent="M7CGMbNuYNeq0SnUNNgH-6" edge="1">
                    <mxGeometry width="50" height="50" relative="1" as="geometry">
                        <mxPoint x="405.71" y="195" as="sourcePoint"/>
                        <mxPoint x="406.21" y="225" as="targetPoint"/>
                    </mxGeometry>
                </mxCell>
                <mxCell id="mvioNwK95yMqdUQ73LqQ-27" value="" style="verticalLabelPosition=bottom;verticalAlign=top;html=1;shape=offPageConnector;rounded=0;size=0.5;" parent="M7CGMbNuYNeq0SnUNNgH-6" vertex="1">
                    <mxGeometry x="391" y="165" width="30" height="30" as="geometry"/>
                </mxCell>
                <mxCell id="mvioNwK95yMqdUQ73LqQ-28" value="หน้าต่อไป" style="text;html=1;align=center;verticalAlign=middle;resizable=0;points=[];autosize=1;strokeColor=none;fillColor=none;fontFamily=Sarabun;fontSource=https%3A%2F%2Ffonts.googleapis.com%2Fcss%3Ffamily%3DSarabun;" parent="M7CGMbNuYNeq0SnUNNgH-6" vertex="1">
                    <mxGeometry x="345" y="220" width="70" height="30" as="geometry"/>
                </mxCell>
                <mxCell id="mvioNwK95yMqdUQ73LqQ-29" value="ก" style="text;html=1;align=center;verticalAlign=middle;resizable=0;points=[];autosize=1;strokeColor=none;fillColor=none;fontFamily=Sarabun;fontSource=https%3A%2F%2Ffonts.googleapis.com%2Fcss%3Ffamily%3DSarabun;" parent="M7CGMbNuYNeq0SnUNNgH-6" vertex="1">
                    <mxGeometry x="339" y="190" width="30" height="30" as="geometry"/>
                </mxCell>
                <mxCell id="mvioNwK95yMqdUQ73LqQ-30" value="ก" style="text;html=1;align=center;verticalAlign=middle;resizable=0;points=[];autosize=1;strokeColor=none;fillColor=none;fontFamily=Sarabun;fontSource=https%3A%2F%2Ffonts.googleapis.com%2Fcss%3Ffamily%3DSarabun;" parent="M7CGMbNuYNeq0SnUNNgH-6" vertex="1">
                    <mxGeometry x="391" y="160" width="30" height="30" as="geometry"/>
                </mxCell>
                <mxCell id="mvioNwK95yMqdUQ73LqQ-32" value="แสดงผล/รับค่า" style="shape=parallelogram;perimeter=parallelogramPerimeter;whiteSpace=wrap;html=1;fixedSize=1;fontFamily=Sarabun;fontSource=https%3A%2F%2Ffonts.googleapis.com%2Fcss%3Ffamily%3DSarabun;" parent="M7CGMbNuYNeq0SnUNNgH-6" vertex="1">
                    <mxGeometry x="450" y="210" width="120" height="30" as="geometry"/>
                </mxCell>
                <mxCell id="mvioNwK95yMqdUQ73LqQ-33" value="" style="endArrow=classic;html=1;rounded=0;" parent="M7CGMbNuYNeq0SnUNNgH-6" edge="1">
                    <mxGeometry width="50" height="50" relative="1" as="geometry">
                        <mxPoint x="509.71" y="180" as="sourcePoint"/>
                        <mxPoint x="510.21" y="210" as="targetPoint"/>
                    </mxGeometry>
                </mxCell>
                <mxCell id="mvioNwK95yMqdUQ73LqQ-34" value="" style="endArrow=classic;html=1;rounded=0;" parent="M7CGMbNuYNeq0SnUNNgH-6" edge="1">
                    <mxGeometry width="50" height="50" relative="1" as="geometry">
                        <mxPoint x="509.71" y="240" as="sourcePoint"/>
                        <mxPoint x="510.21" y="270" as="targetPoint"/>
                    </mxGeometry>
                </mxCell>
                <mxCell id="mvioNwK95yMqdUQ73LqQ-36" value="แก้ไขโจทย์ปัญหา" style="swimlane;fontFamily=Sarabun;fontSource=https%3A%2F%2Ffonts.googleapis.com%2Fcss%3Ffamily%3DSarabun;" parent="WIyWlLk6GJQsqaUBKTNV-1" vertex="1">
                    <mxGeometry x="-700" y="661" width="647.5" height="4499" as="geometry"/>
                </mxCell>
                <mxCell id="19" style="edgeStyle=none;html=1;exitX=0.5;exitY=1;exitDx=0;exitDy=0;entryX=0.5;entryY=0;entryDx=0;entryDy=0;" parent="mvioNwK95yMqdUQ73LqQ-36" source="mvioNwK95yMqdUQ73LqQ-35" edge="1">
                    <mxGeometry relative="1" as="geometry">
                        <mxPoint x="325" y="100" as="targetPoint"/>
                    </mxGeometry>
                </mxCell>
                <mxCell id="mvioNwK95yMqdUQ73LqQ-35" value="&lt;font data-font-src=&quot;https://fonts.googleapis.com/css?family=Sarabun&quot; face=&quot;Sarabun&quot;&gt;เริ่มต้น&lt;/font&gt;" style="ellipse;whiteSpace=wrap;html=1;" parent="mvioNwK95yMqdUQ73LqQ-36" vertex="1">
                    <mxGeometry x="260" y="40" width="130" height="30" as="geometry"/>
                </mxCell>
                <mxCell id="223" value="" style="edgeStyle=none;html=1;" parent="mvioNwK95yMqdUQ73LqQ-36" source="205" target="222" edge="1">
                    <mxGeometry relative="1" as="geometry"/>
                </mxCell>
                <mxCell id="205" value="ยอดที่ต้องจ่าย =TOTAL TOTAL =&amp;nbsp;FMAGA + FRATE &lt;br&gt;+ FPAO + FSUNSS + FFOY + FLUMYAI&amp;nbsp;" style="shape=parallelogram;perimeter=parallelogramPerimeter;whiteSpace=wrap;html=1;fixedSize=1;fontFamily=Helvetica;fontSize=12;" parent="mvioNwK95yMqdUQ73LqQ-36" vertex="1">
                    <mxGeometry x="178.75" y="630" width="335" height="59" as="geometry"/>
                </mxCell>
                <mxCell id="222" value="กรุณาใส่เงิน" style="shape=parallelogram;perimeter=parallelogramPerimeter;whiteSpace=wrap;html=1;fixedSize=1;" parent="mvioNwK95yMqdUQ73LqQ-36" vertex="1">
                    <mxGeometry x="286.25" y="729" width="120" height="60" as="geometry"/>
                </mxCell>
                <mxCell id="224" value="เงินที่ลูกค้าใส่มา&lt;br&gt;ทั้งหมด = ALL" style="whiteSpace=wrap;html=1;" parent="mvioNwK95yMqdUQ73LqQ-36" vertex="1">
                    <mxGeometry x="286.25" y="839" width="120" height="60" as="geometry"/>
                </mxCell>
                <mxCell id="225" value="" style="edgeStyle=none;html=1;" parent="mvioNwK95yMqdUQ73LqQ-36" source="222" target="224" edge="1">
                    <mxGeometry relative="1" as="geometry"/>
                </mxCell>
                <mxCell id="226" value="ALL &amp;gt;= TOTAL" style="rhombus;whiteSpace=wrap;html=1;" parent="mvioNwK95yMqdUQ73LqQ-36" vertex="1">
                    <mxGeometry x="156.25" y="949" width="95" height="100" as="geometry"/>
                </mxCell>
                <mxCell id="229" value="F" style="text;html=1;align=center;verticalAlign=middle;resizable=0;points=[];autosize=1;strokeColor=none;fillColor=none;" parent="mvioNwK95yMqdUQ73LqQ-36" vertex="1">
                    <mxGeometry x="83.75" y="969" width="30" height="30" as="geometry"/>
                </mxCell>
                <mxCell id="230" value="T" style="text;html=1;align=center;verticalAlign=middle;resizable=0;points=[];autosize=1;strokeColor=none;fillColor=none;" parent="mvioNwK95yMqdUQ73LqQ-36" vertex="1">
                    <mxGeometry x="331.25" y="969" width="30" height="30" as="geometry"/>
                </mxCell>
                <mxCell id="232" value="" style="edgeStyle=segmentEdgeStyle;endArrow=classic;html=1;curved=0;rounded=0;endSize=8;startSize=8;sourcePerimeterSpacing=0;targetPerimeterSpacing=0;" parent="mvioNwK95yMqdUQ73LqQ-36" source="224" target="226" edge="1">
                    <mxGeometry width="100" relative="1" as="geometry">
                        <mxPoint x="368.75" y="929" as="sourcePoint"/>
                        <mxPoint x="298.75" y="969" as="targetPoint"/>
                        <Array as="points">
                            <mxPoint x="339.25" y="929"/>
                            <mxPoint x="204.25" y="929"/>
                        </Array>
                    </mxGeometry>
                </mxCell>
                <mxCell id="228" value="" style="edgeStyle=segmentEdgeStyle;endArrow=classic;html=1;curved=0;rounded=0;endSize=8;startSize=8;sourcePerimeterSpacing=0;targetPerimeterSpacing=0;" parent="mvioNwK95yMqdUQ73LqQ-36" source="226" edge="1">
                    <mxGeometry width="100" relative="1" as="geometry">
                        <mxPoint x="308.75" y="1019" as="sourcePoint"/>
                        <mxPoint x="471.75" y="1159" as="targetPoint"/>
                        <Array as="points">
                            <mxPoint x="471.25" y="999"/>
                            <mxPoint x="471.25" y="1141"/>
                        </Array>
                    </mxGeometry>
                </mxCell>
                <mxCell id="234" value="&lt;div&gt;ALL/500=FH&lt;/div&gt;&lt;div&gt;FH X 500-ALL=TFH&lt;/div&gt;" style="rounded=0;whiteSpace=wrap;html=1;" parent="mvioNwK95yMqdUQ73LqQ-36" vertex="1">
                    <mxGeometry x="158.75" y="1229" width="120" height="60" as="geometry"/>
                </mxCell>
                <mxCell id="235" value="ALL&amp;gt;=500" style="rhombus;whiteSpace=wrap;html=1;" parent="mvioNwK95yMqdUQ73LqQ-36" vertex="1">
                    <mxGeometry x="431.25" y="1159" width="80" height="80" as="geometry"/>
                </mxCell>
                <mxCell id="236" value="" style="edgeStyle=segmentEdgeStyle;endArrow=classic;html=1;curved=0;rounded=0;endSize=8;startSize=8;sourcePerimeterSpacing=0;targetPerimeterSpacing=0;exitX=0.016;exitY=0.492;exitDx=0;exitDy=0;exitPerimeter=0;" parent="mvioNwK95yMqdUQ73LqQ-36" source="235" edge="1">
                    <mxGeometry width="100" relative="1" as="geometry">
                        <mxPoint x="311.25" y="1159" as="sourcePoint"/>
                        <mxPoint x="211.25" y="1229" as="targetPoint"/>
                        <Array as="points">
                            <mxPoint x="291.25" y="1198"/>
                            <mxPoint x="211.25" y="1199"/>
                        </Array>
                    </mxGeometry>
                </mxCell>
                <mxCell id="237" value="T" style="text;html=1;align=center;verticalAlign=middle;resizable=0;points=[];autosize=1;strokeColor=none;fillColor=none;" parent="mvioNwK95yMqdUQ73LqQ-36" vertex="1">
                    <mxGeometry x="301.25" y="1159" width="30" height="30" as="geometry"/>
                </mxCell>
                <mxCell id="238" value="" style="edgeStyle=segmentEdgeStyle;endArrow=classic;html=1;curved=0;rounded=0;endSize=8;startSize=8;sourcePerimeterSpacing=0;targetPerimeterSpacing=0;" parent="mvioNwK95yMqdUQ73LqQ-36" edge="1">
                    <mxGeometry width="100" relative="1" as="geometry">
                        <mxPoint x="513.75" y="1199" as="sourcePoint"/>
                        <mxPoint x="564.75" y="1359" as="targetPoint"/>
                        <Array as="points">
                            <mxPoint x="564.25" y="1199"/>
                            <mxPoint x="564.25" y="1229"/>
                            <mxPoint x="565.25" y="1229"/>
                            <mxPoint x="565.25" y="1239"/>
                        </Array>
                    </mxGeometry>
                </mxCell>
                <mxCell id="239" value="F" style="text;html=1;align=center;verticalAlign=middle;resizable=0;points=[];autosize=1;strokeColor=none;fillColor=none;" parent="mvioNwK95yMqdUQ73LqQ-36" vertex="1">
                    <mxGeometry x="525" y="1259" width="30" height="30" as="geometry"/>
                </mxCell>
                <mxCell id="240" value="FH=0" style="whiteSpace=wrap;html=1;" parent="mvioNwK95yMqdUQ73LqQ-36" vertex="1">
                    <mxGeometry x="513.75" y="1359" width="100" height="40" as="geometry"/>
                </mxCell>
                <mxCell id="241" value="TFH&amp;gt;=100" style="rhombus;whiteSpace=wrap;html=1;" parent="mvioNwK95yMqdUQ73LqQ-36" vertex="1">
                    <mxGeometry x="331.25" y="1459" width="80" height="80" as="geometry"/>
                </mxCell>
                <mxCell id="265" value="T" style="text;html=1;align=center;verticalAlign=middle;resizable=0;points=[];autosize=1;strokeColor=none;fillColor=none;" parent="mvioNwK95yMqdUQ73LqQ-36" vertex="1">
                    <mxGeometry x="248.75" y="1468" width="30" height="30" as="geometry"/>
                </mxCell>
                <mxCell id="266" value="" style="edgeStyle=segmentEdgeStyle;endArrow=classic;html=1;curved=0;rounded=0;endSize=8;startSize=8;sourcePerimeterSpacing=0;targetPerimeterSpacing=0;exitX=0.978;exitY=0.507;exitDx=0;exitDy=0;exitPerimeter=0;" parent="mvioNwK95yMqdUQ73LqQ-36" source="241" edge="1">
                    <mxGeometry width="100" relative="1" as="geometry">
                        <mxPoint x="421.25" y="1498" as="sourcePoint"/>
                        <mxPoint x="571.25" y="1698" as="targetPoint"/>
                        <Array as="points">
                            <mxPoint x="571.25" y="1500"/>
                        </Array>
                    </mxGeometry>
                </mxCell>
                <mxCell id="267" value="F" style="text;html=1;align=center;verticalAlign=middle;resizable=0;points=[];autosize=1;strokeColor=none;fillColor=none;" parent="mvioNwK95yMqdUQ73LqQ-36" vertex="1">
                    <mxGeometry x="472.5" y="1468" width="30" height="30" as="geometry"/>
                </mxCell>
                <mxCell id="269" value="&lt;div&gt;TFH/100=OH&lt;/div&gt;&lt;div&gt;OH X 100-TFH=TOH&lt;/div&gt;" style="rounded=0;whiteSpace=wrap;html=1;" parent="mvioNwK95yMqdUQ73LqQ-36" vertex="1">
                    <mxGeometry x="191.25" y="1648" width="120" height="60" as="geometry"/>
                </mxCell>
                <mxCell id="270" value="OH=0" style="whiteSpace=wrap;html=1;" parent="mvioNwK95yMqdUQ73LqQ-36" vertex="1">
                    <mxGeometry x="525" y="1698" width="100" height="40" as="geometry"/>
                </mxCell>
                <mxCell id="271" value="TOH&amp;lt;=50" style="rhombus;whiteSpace=wrap;html=1;" parent="mvioNwK95yMqdUQ73LqQ-36" vertex="1">
                    <mxGeometry x="338.75" y="1798" width="80" height="80" as="geometry"/>
                </mxCell>
                <mxCell id="272" value="" style="edgeStyle=segmentEdgeStyle;endArrow=classic;html=1;curved=0;rounded=0;endSize=8;startSize=8;sourcePerimeterSpacing=0;targetPerimeterSpacing=0;" parent="mvioNwK95yMqdUQ73LqQ-36" target="271" edge="1">
                    <mxGeometry width="100" relative="1" as="geometry">
                        <mxPoint x="578.75" y="1738" as="sourcePoint"/>
                        <mxPoint x="499.25" y="1798" as="targetPoint"/>
                        <Array as="points">
                            <mxPoint x="579.25" y="1758"/>
                            <mxPoint x="381.25" y="1758"/>
                            <mxPoint x="381.25" y="1798"/>
                            <mxPoint x="379.25" y="1798"/>
                        </Array>
                    </mxGeometry>
                </mxCell>
                <mxCell id="275" value="" style="shape=waypoint;sketch=0;size=6;pointerEvents=1;points=[];fillColor=none;resizable=0;rotatable=0;perimeter=centerPerimeter;snapToPoint=1;" parent="mvioNwK95yMqdUQ73LqQ-36" vertex="1">
                    <mxGeometry x="371.25" y="1748" width="20" height="20" as="geometry"/>
                </mxCell>
                <mxCell id="277" value="&lt;div&gt;TOH/50=FT&lt;/div&gt;&lt;div&gt;FT X 50-TOH=TFT&lt;/div&gt;" style="rounded=0;whiteSpace=wrap;html=1;" parent="mvioNwK95yMqdUQ73LqQ-36" vertex="1">
                    <mxGeometry x="216.25" y="1909" width="120" height="60" as="geometry"/>
                </mxCell>
                <mxCell id="278" value="FT=0" style="whiteSpace=wrap;html=1;" parent="mvioNwK95yMqdUQ73LqQ-36" vertex="1">
                    <mxGeometry x="502.5" y="1909" width="100" height="40" as="geometry"/>
                </mxCell>
                <mxCell id="279" value="" style="edgeStyle=segmentEdgeStyle;endArrow=classic;html=1;curved=0;rounded=0;endSize=8;startSize=8;sourcePerimeterSpacing=0;targetPerimeterSpacing=0;" parent="mvioNwK95yMqdUQ73LqQ-36" target="277" edge="1">
                    <mxGeometry width="100" relative="1" as="geometry">
                        <mxPoint x="338.75" y="1839" as="sourcePoint"/>
                        <mxPoint x="328.75" y="1879" as="targetPoint"/>
                        <Array as="points">
                            <mxPoint x="279.25" y="1839"/>
                        </Array>
                    </mxGeometry>
                </mxCell>
                <mxCell id="280" value="T" style="text;html=1;align=center;verticalAlign=middle;resizable=0;points=[];autosize=1;strokeColor=none;fillColor=none;" parent="mvioNwK95yMqdUQ73LqQ-36" vertex="1">
                    <mxGeometry x="226.25" y="1824" width="30" height="30" as="geometry"/>
                </mxCell>
                <mxCell id="281" value="" style="edgeStyle=segmentEdgeStyle;endArrow=classic;html=1;curved=0;rounded=0;endSize=8;startSize=8;sourcePerimeterSpacing=0;targetPerimeterSpacing=0;entryX=0.47;entryY=0.039;entryDx=0;entryDy=0;entryPerimeter=0;" parent="mvioNwK95yMqdUQ73LqQ-36" target="278" edge="1">
                    <mxGeometry width="100" relative="1" as="geometry">
                        <mxPoint x="421.25" y="1839" as="sourcePoint"/>
                        <mxPoint x="521.25" y="1879" as="targetPoint"/>
                        <Array as="points">
                            <mxPoint x="551.25" y="1839"/>
                            <mxPoint x="551.25" y="1879"/>
                            <mxPoint x="549.25" y="1879"/>
                        </Array>
                    </mxGeometry>
                </mxCell>
                <mxCell id="282" value="F" style="text;html=1;align=center;verticalAlign=middle;resizable=0;points=[];autosize=1;strokeColor=none;fillColor=none;" parent="mvioNwK95yMqdUQ73LqQ-36" vertex="1">
                    <mxGeometry x="471.25" y="1849" width="30" height="30" as="geometry"/>
                </mxCell>
                <mxCell id="286" value="TFT&amp;gt;=20" style="rhombus;whiteSpace=wrap;html=1;" parent="mvioNwK95yMqdUQ73LqQ-36" vertex="1">
                    <mxGeometry x="386.25" y="2069" width="80" height="80" as="geometry"/>
                </mxCell>
                <mxCell id="290" value="" style="shape=waypoint;sketch=0;size=6;pointerEvents=1;points=[];fillColor=none;resizable=0;rotatable=0;perimeter=centerPerimeter;snapToPoint=1;" parent="mvioNwK95yMqdUQ73LqQ-36" vertex="1">
                    <mxGeometry x="406.25" y="2029" width="20" height="20" as="geometry"/>
                </mxCell>
                <mxCell id="291" value="" style="endArrow=classic;html=1;entryX=0.526;entryY=0.02;entryDx=0;entryDy=0;entryPerimeter=0;exitX=0.467;exitY=0.828;exitDx=0;exitDy=0;exitPerimeter=0;" parent="mvioNwK95yMqdUQ73LqQ-36" source="290" target="286" edge="1">
                    <mxGeometry width="50" height="50" relative="1" as="geometry">
                        <mxPoint x="341.25" y="2059" as="sourcePoint"/>
                        <mxPoint x="391.25" y="2009" as="targetPoint"/>
                    </mxGeometry>
                </mxCell>
                <mxCell id="303" value="TTT&amp;gt;=10" style="rhombus;whiteSpace=wrap;html=1;" parent="mvioNwK95yMqdUQ73LqQ-36" vertex="1">
                    <mxGeometry x="392.5" y="2338" width="80" height="80" as="geometry"/>
                </mxCell>
                <mxCell id="313" value="TB=0" style="whiteSpace=wrap;html=1;" parent="mvioNwK95yMqdUQ73LqQ-36" vertex="1">
                    <mxGeometry x="541.25" y="2448" width="100" height="40" as="geometry"/>
                </mxCell>
                <mxCell id="315" value="T" style="text;html=1;align=center;verticalAlign=middle;resizable=0;points=[];autosize=1;strokeColor=none;fillColor=none;" parent="mvioNwK95yMqdUQ73LqQ-36" vertex="1">
                    <mxGeometry x="291.25" y="2388" width="30" height="30" as="geometry"/>
                </mxCell>
                <mxCell id="351" value="TFB&amp;gt;=1" style="rhombus;whiteSpace=wrap;html=1;" parent="mvioNwK95yMqdUQ73LqQ-36" vertex="1">
                    <mxGeometry x="311.25" y="2948" width="80" height="80" as="geometry"/>
                </mxCell>
                <mxCell id="353" value="เงินของคุณไม่พอกรุณา&lt;br&gt;ทำรายการใหม่" style="shape=parallelogram;perimeter=parallelogramPerimeter;whiteSpace=wrap;html=1;fixedSize=1;" parent="mvioNwK95yMqdUQ73LqQ-36" vertex="1">
                    <mxGeometry x="18.75" y="1078" width="160" height="71" as="geometry"/>
                </mxCell>
                <mxCell id="227" value="" style="endArrow=none;html=1;entryX=0.008;entryY=0.505;entryDx=0;entryDy=0;entryPerimeter=0;" parent="mvioNwK95yMqdUQ73LqQ-36" target="226" edge="1">
                    <mxGeometry width="50" height="50" relative="1" as="geometry">
                        <mxPoint x="81.25" y="1000" as="sourcePoint"/>
                        <mxPoint x="111.25" y="1038" as="targetPoint"/>
                        <Array as="points"/>
                    </mxGeometry>
                </mxCell>
                <mxCell id="354" value="" style="endArrow=classic;html=1;exitX=0.098;exitY=1.073;exitDx=0;exitDy=0;exitPerimeter=0;" parent="mvioNwK95yMqdUQ73LqQ-36" source="229" edge="1">
                    <mxGeometry width="50" height="50" relative="1" as="geometry">
                        <mxPoint x="221.25" y="1138" as="sourcePoint"/>
                        <mxPoint x="86.25" y="1079" as="targetPoint"/>
                    </mxGeometry>
                </mxCell>
                <mxCell id="355" value="คืนเงินที่ใส่มาให้ลูกค้า" style="shape=parallelogram;perimeter=parallelogramPerimeter;whiteSpace=wrap;html=1;fixedSize=1;" parent="mvioNwK95yMqdUQ73LqQ-36" vertex="1">
                    <mxGeometry x="31.25" y="1428" width="152.5" height="81" as="geometry"/>
                </mxCell>
                <mxCell id="356" value="" style="endArrow=classic;html=1;exitX=0.457;exitY=0.999;exitDx=0;exitDy=0;exitPerimeter=0;entryX=0.398;entryY=0;entryDx=0;entryDy=0;entryPerimeter=0;" parent="mvioNwK95yMqdUQ73LqQ-36" source="353" target="355" edge="1">
                    <mxGeometry width="50" height="50" relative="1" as="geometry">
                        <mxPoint x="301.25" y="1218" as="sourcePoint"/>
                        <mxPoint x="351.25" y="1168" as="targetPoint"/>
                    </mxGeometry>
                </mxCell>
                <mxCell id="345" value="F" style="text;html=1;align=center;verticalAlign=middle;resizable=0;points=[];autosize=1;strokeColor=none;fillColor=none;" parent="mvioNwK95yMqdUQ73LqQ-36" vertex="1">
                    <mxGeometry x="483.75" y="2988" width="30" height="30" as="geometry"/>
                </mxCell>
                <mxCell id="361" value="" style="edgeStyle=none;html=1;" parent="mvioNwK95yMqdUQ73LqQ-36" source="358" target="359" edge="1">
                    <mxGeometry relative="1" as="geometry"/>
                </mxCell>
                <mxCell id="358" value="&lt;b&gt;&lt;i&gt;&lt;u&gt;จำนวณสินค้าที่ลูกค้าจะได้รับ&lt;br&gt;&lt;/u&gt;&lt;/i&gt;&lt;/b&gt;จำนวนกาแฟอเมริกาโน่ที่ออกไป=FMAGA/35&lt;br&gt;จำวนวนลาเต้เย็นที่ออกไป=FRATE/25&lt;br&gt;จำนวนนำเปล่าที่ออกไป=FPAO/10&lt;br&gt;จำนวนขนมชั้นที่่ออกไป=FSUNSS/5&lt;br&gt;จำนวนฝอยทองทีออกไป=FFOY/20&lt;br&gt;จำนวนลำไยอบแห้งที่ออกไป=FLUMYAI/50" style="shape=parallelogram;perimeter=parallelogramPerimeter;whiteSpace=wrap;html=1;fixedSize=1;" parent="mvioNwK95yMqdUQ73LqQ-36" vertex="1">
                    <mxGeometry x="226.25" y="3258" width="305" height="121" as="geometry"/>
                </mxCell>
                <mxCell id="363" value="" style="edgeStyle=none;html=1;" parent="mvioNwK95yMqdUQ73LqQ-36" source="359" target="362" edge="1">
                    <mxGeometry relative="1" as="geometry"/>
                </mxCell>
                <mxCell id="359" value="&lt;div&gt;&lt;b&gt;&lt;i&gt;&lt;u&gt;ประเภทเงินทอนและจำนวนที่ทอนไป&lt;/u&gt;&lt;/i&gt;&lt;/b&gt;&lt;/div&gt;&lt;div&gt;จำนวนใบห้าร้อยที่ทอนไป=FH&lt;/div&gt;&lt;div&gt;จำนวนใบร้อยที่ทอนไป=OH&lt;/div&gt;&lt;div&gt;จำนวนใบห้าสิบที่ทอนไป=FT&lt;/div&gt;&lt;div&gt;จำนวนใบยี่สิบที่ทอนไป=TT&lt;/div&gt;&lt;div&gt;จำนวนเหรียญสิบที่ทอนไป=TB&lt;/div&gt;&lt;div&gt;จำนวนเหรียญห้าที่ทอนไป=FB&lt;/div&gt;&lt;div&gt;จำนวนเหรียญบาทที่ทอนไป=OB&lt;/div&gt;" style="shape=parallelogram;perimeter=parallelogramPerimeter;whiteSpace=wrap;html=1;fixedSize=1;" parent="mvioNwK95yMqdUQ73LqQ-36" vertex="1">
                    <mxGeometry x="226.25" y="3418" width="315" height="151" as="geometry"/>
                </mxCell>
                <mxCell id="367" value="" style="edgeStyle=none;html=1;" parent="mvioNwK95yMqdUQ73LqQ-36" source="362" target="364" edge="1">
                    <mxGeometry relative="1" as="geometry"/>
                </mxCell>
                <mxCell id="362" value="&lt;b&gt;&lt;i&gt;&lt;u&gt;สินค้าแต่ละประเภทที่เหลืออยู่&lt;br&gt;&lt;/u&gt;&lt;/i&gt;&lt;/b&gt;จำนวนกาแฟอเมริกาโน่ที่ออกไป=FMAGA/35&lt;br&gt;จำวนวนลาเต้เย็นที่ออกไป=FRATE/25&lt;br&gt;จำนวนนำเปล่าที่ออกไป=FPAO/10&lt;br&gt;จำนวนขนมชั้นที่่ออกไป=FSUNSS/5&lt;br&gt;จำนวนฝอยทองทีออกไป=FFOY/20&lt;br&gt;จำนวนลำไยอบแห้งที่ออกไป=FLUMYAI/50" style="shape=parallelogram;perimeter=parallelogramPerimeter;whiteSpace=wrap;html=1;fixedSize=1;" parent="mvioNwK95yMqdUQ73LqQ-36" vertex="1">
                    <mxGeometry x="215" y="3598" width="310" height="181" as="geometry"/>
                </mxCell>
                <mxCell id="366" value="" style="edgeStyle=none;html=1;" parent="mvioNwK95yMqdUQ73LqQ-36" source="364" target="365" edge="1">
                    <mxGeometry relative="1" as="geometry"/>
                </mxCell>
                <mxCell id="364" value="&lt;b&gt;&lt;i&gt;&lt;u&gt;จำนวนใบและเหรียญแต่ละประเภทที่เหลืออยู่&lt;br&gt;&lt;/u&gt;&lt;/i&gt;&lt;/b&gt;&lt;div&gt;จำนวนใบห้าร้อยที่เหลือ=MANYFH-FH&lt;/div&gt;&lt;div&gt;จำนวนใบร้อยที่เหลือ=MANYOH-OH&lt;/div&gt;&lt;div&gt;จำนวนใบห้าสิบที่เหลือ=MANYFT-FT&lt;/div&gt;&lt;div&gt;จำนวนใบยี่สิบที่เหลือ=MANYTT-TT&lt;/div&gt;&lt;div&gt;จำนวนเหรียญสิบที่เหลือ=MANYTB-TB&lt;/div&gt;&lt;div&gt;จำนวนเหรียญห้าบาทที่เหลือ=MANYFB-FB&lt;/div&gt;&lt;div&gt;จำนวนเหรียญบาทที่เหลือ=MANYOB-OB&lt;/div&gt;" style="shape=parallelogram;perimeter=parallelogramPerimeter;whiteSpace=wrap;html=1;fixedSize=1;" parent="mvioNwK95yMqdUQ73LqQ-36" vertex="1">
                    <mxGeometry x="211.25" y="3818" width="310" height="181" as="geometry"/>
                </mxCell>
                <mxCell id="365" value="&lt;i style=&quot;&quot;&gt;&lt;b style=&quot;text-decoration-line: underline;&quot;&gt;จำนวนกำไร &lt;br&gt;=&amp;nbsp;&lt;/b&gt;5xFMAGA/35 + 6xFRATE/25 + 2xFPAO/10 + 3xFSUNSS/5 + 7FFOY/20 + 10XFLUMYAI/50&lt;br&gt;&lt;/i&gt;&lt;div&gt;&lt;br&gt;&lt;/div&gt;" style="shape=parallelogram;perimeter=parallelogramPerimeter;whiteSpace=wrap;html=1;fixedSize=1;" parent="mvioNwK95yMqdUQ73LqQ-36" vertex="1">
                    <mxGeometry x="203.75" y="4048" width="310" height="181" as="geometry"/>
                </mxCell>
                <mxCell id="368" value="สิ้นสุด" style="ellipse;whiteSpace=wrap;html=1;" parent="mvioNwK95yMqdUQ73LqQ-36" vertex="1">
                    <mxGeometry x="58.75" y="4358" width="105" height="51" as="geometry"/>
                </mxCell>
                <mxCell id="242" value="" style="edgeStyle=segmentEdgeStyle;endArrow=classic;html=1;curved=0;rounded=0;endSize=8;startSize=8;sourcePerimeterSpacing=0;targetPerimeterSpacing=0;" parent="mvioNwK95yMqdUQ73LqQ-36" edge="1">
                    <mxGeometry width="100" relative="1" as="geometry">
                        <mxPoint x="571.25" y="1398" as="sourcePoint"/>
                        <mxPoint x="371.25" y="1458" as="targetPoint"/>
                        <Array as="points">
                            <mxPoint x="571.25" y="1438"/>
                            <mxPoint x="371.25" y="1438"/>
                        </Array>
                    </mxGeometry>
                </mxCell>
                <mxCell id="243" value="" style="endArrow=none;html=1;entryX=0.446;entryY=0.998;entryDx=0;entryDy=0;entryPerimeter=0;" parent="mvioNwK95yMqdUQ73LqQ-36" target="234" edge="1">
                    <mxGeometry width="50" height="50" relative="1" as="geometry">
                        <mxPoint x="212.25" y="1408" as="sourcePoint"/>
                        <mxPoint x="351.25" y="1288" as="targetPoint"/>
                    </mxGeometry>
                </mxCell>
                <mxCell id="244" value="" style="endArrow=none;html=1;" parent="mvioNwK95yMqdUQ73LqQ-36" edge="1">
                    <mxGeometry width="50" height="50" relative="1" as="geometry">
                        <mxPoint x="211.25" y="1408" as="sourcePoint"/>
                        <mxPoint x="381.25" y="1408" as="targetPoint"/>
                    </mxGeometry>
                </mxCell>
                <mxCell id="247" value="" style="endArrow=none;html=1;startArrow=none;" parent="mvioNwK95yMqdUQ73LqQ-36" source="245" edge="1">
                    <mxGeometry width="50" height="50" relative="1" as="geometry">
                        <mxPoint x="381.25" y="1408" as="sourcePoint"/>
                        <mxPoint x="381.25" y="1438" as="targetPoint"/>
                    </mxGeometry>
                </mxCell>
                <mxCell id="248" value="" style="endArrow=none;html=1;" parent="mvioNwK95yMqdUQ73LqQ-36" target="245" edge="1">
                    <mxGeometry width="50" height="50" relative="1" as="geometry">
                        <mxPoint x="381.25" y="1408" as="sourcePoint"/>
                        <mxPoint x="381.25" y="1438" as="targetPoint"/>
                    </mxGeometry>
                </mxCell>
                <mxCell id="245" value="" style="shape=waypoint;sketch=0;size=6;pointerEvents=1;points=[];fillColor=none;resizable=0;rotatable=0;perimeter=centerPerimeter;snapToPoint=1;" parent="mvioNwK95yMqdUQ73LqQ-36" vertex="1">
                    <mxGeometry x="373.75" y="1428" width="20" height="20" as="geometry"/>
                </mxCell>
                <mxCell id="263" value="" style="edgeStyle=segmentEdgeStyle;endArrow=classic;html=1;curved=0;rounded=0;endSize=8;startSize=8;sourcePerimeterSpacing=0;targetPerimeterSpacing=0;exitX=0.033;exitY=0.493;exitDx=0;exitDy=0;exitPerimeter=0;" parent="mvioNwK95yMqdUQ73LqQ-36" source="241" edge="1">
                    <mxGeometry width="100" relative="1" as="geometry">
                        <mxPoint x="311.25" y="1518" as="sourcePoint"/>
                        <mxPoint x="251.25" y="1648" as="targetPoint"/>
                        <Array as="points">
                            <mxPoint x="251.25" y="1498"/>
                            <mxPoint x="251.25" y="1588"/>
                        </Array>
                    </mxGeometry>
                </mxCell>
                <mxCell id="273" value="" style="endArrow=none;html=1;exitX=0.471;exitY=1.045;exitDx=0;exitDy=0;exitPerimeter=0;" parent="mvioNwK95yMqdUQ73LqQ-36" source="269" edge="1">
                    <mxGeometry width="50" height="50" relative="1" as="geometry">
                        <mxPoint x="381.25" y="1698" as="sourcePoint"/>
                        <mxPoint x="248.25" y="1738" as="targetPoint"/>
                    </mxGeometry>
                </mxCell>
                <mxCell id="274" value="" style="endArrow=none;html=1;" parent="mvioNwK95yMqdUQ73LqQ-36" edge="1">
                    <mxGeometry width="50" height="50" relative="1" as="geometry">
                        <mxPoint x="251.25" y="1738" as="sourcePoint"/>
                        <mxPoint x="381.25" y="1758" as="targetPoint"/>
                    </mxGeometry>
                </mxCell>
                <mxCell id="287" value="" style="endArrow=none;html=1;exitX=0.625;exitY=1;exitDx=0;exitDy=0;exitPerimeter=0;" parent="mvioNwK95yMqdUQ73LqQ-36" source="277" edge="1">
                    <mxGeometry width="50" height="50" relative="1" as="geometry">
                        <mxPoint x="341.25" y="2059" as="sourcePoint"/>
                        <mxPoint x="291.25" y="2029" as="targetPoint"/>
                    </mxGeometry>
                </mxCell>
                <mxCell id="288" value="" style="endArrow=none;html=1;" parent="mvioNwK95yMqdUQ73LqQ-36" edge="1">
                    <mxGeometry width="50" height="50" relative="1" as="geometry">
                        <mxPoint x="291.25" y="2029" as="sourcePoint"/>
                        <mxPoint x="421.25" y="2039" as="targetPoint"/>
                    </mxGeometry>
                </mxCell>
                <mxCell id="289" value="" style="endArrow=none;html=1;entryX=0.47;entryY=1.039;entryDx=0;entryDy=0;entryPerimeter=0;" parent="mvioNwK95yMqdUQ73LqQ-36" target="278" edge="1">
                    <mxGeometry width="50" height="50" relative="1" as="geometry">
                        <mxPoint x="421.25" y="2039" as="sourcePoint"/>
                        <mxPoint x="391.25" y="2009" as="targetPoint"/>
                    </mxGeometry>
                </mxCell>
                <mxCell id="292" value="&lt;div&gt;TFT/2O=TT&lt;/div&gt;&lt;div&gt;TT X 20-TFT=TTT&lt;/div&gt;" style="rounded=0;whiteSpace=wrap;html=1;" parent="mvioNwK95yMqdUQ73LqQ-36" vertex="1">
                    <mxGeometry x="261.25" y="2178" width="120" height="60" as="geometry"/>
                </mxCell>
                <mxCell id="293" value="TT=0" style="whiteSpace=wrap;html=1;" parent="mvioNwK95yMqdUQ73LqQ-36" vertex="1">
                    <mxGeometry x="547.5" y="2178" width="100" height="40" as="geometry"/>
                </mxCell>
                <mxCell id="294" value="" style="edgeStyle=segmentEdgeStyle;endArrow=classic;html=1;curved=0;rounded=0;endSize=8;startSize=8;sourcePerimeterSpacing=0;targetPerimeterSpacing=0;" parent="mvioNwK95yMqdUQ73LqQ-36" target="292" edge="1">
                    <mxGeometry width="100" relative="1" as="geometry">
                        <mxPoint x="383.75" y="2108" as="sourcePoint"/>
                        <mxPoint x="1073.75" y="1487" as="targetPoint"/>
                        <Array as="points">
                            <mxPoint x="324.25" y="2108"/>
                        </Array>
                    </mxGeometry>
                </mxCell>
                <mxCell id="295" value="T" style="text;html=1;align=center;verticalAlign=middle;resizable=0;points=[];autosize=1;strokeColor=none;fillColor=none;" parent="mvioNwK95yMqdUQ73LqQ-36" vertex="1">
                    <mxGeometry x="271.25" y="2093" width="30" height="30" as="geometry"/>
                </mxCell>
                <mxCell id="296" value="" style="edgeStyle=segmentEdgeStyle;endArrow=classic;html=1;curved=0;rounded=0;endSize=8;startSize=8;sourcePerimeterSpacing=0;targetPerimeterSpacing=0;entryX=0.47;entryY=0.039;entryDx=0;entryDy=0;entryPerimeter=0;" parent="mvioNwK95yMqdUQ73LqQ-36" target="293" edge="1">
                    <mxGeometry width="100" relative="1" as="geometry">
                        <mxPoint x="466.25" y="2108" as="sourcePoint"/>
                        <mxPoint x="1266.25" y="1487" as="targetPoint"/>
                        <Array as="points">
                            <mxPoint x="596.25" y="2108"/>
                            <mxPoint x="596.25" y="2148"/>
                            <mxPoint x="594.25" y="2148"/>
                        </Array>
                    </mxGeometry>
                </mxCell>
                <mxCell id="297" value="F" style="text;html=1;align=center;verticalAlign=middle;resizable=0;points=[];autosize=1;strokeColor=none;fillColor=none;" parent="mvioNwK95yMqdUQ73LqQ-36" vertex="1">
                    <mxGeometry x="516.25" y="2118" width="30" height="30" as="geometry"/>
                </mxCell>
                <mxCell id="298" value="" style="shape=waypoint;sketch=0;size=6;pointerEvents=1;points=[];fillColor=none;resizable=0;rotatable=0;perimeter=centerPerimeter;snapToPoint=1;" parent="mvioNwK95yMqdUQ73LqQ-36" vertex="1">
                    <mxGeometry x="451.25" y="2298" width="20" height="20" as="geometry"/>
                </mxCell>
                <mxCell id="299" value="" style="endArrow=classic;html=1;entryX=0.491;entryY=0.006;entryDx=0;entryDy=0;entryPerimeter=0;exitX=0.467;exitY=0.828;exitDx=0;exitDy=0;exitPerimeter=0;" parent="mvioNwK95yMqdUQ73LqQ-36" source="298" target="303" edge="1">
                    <mxGeometry width="50" height="50" relative="1" as="geometry">
                        <mxPoint x="1086.25" y="1667" as="sourcePoint"/>
                        <mxPoint x="473.3299999999999" y="2339.6000000000004" as="targetPoint"/>
                    </mxGeometry>
                </mxCell>
                <mxCell id="300" value="" style="endArrow=none;html=1;exitX=0.625;exitY=1;exitDx=0;exitDy=0;exitPerimeter=0;" parent="mvioNwK95yMqdUQ73LqQ-36" source="292" edge="1">
                    <mxGeometry width="50" height="50" relative="1" as="geometry">
                        <mxPoint x="386.25" y="2328" as="sourcePoint"/>
                        <mxPoint x="336.25" y="2298" as="targetPoint"/>
                    </mxGeometry>
                </mxCell>
                <mxCell id="301" value="" style="endArrow=none;html=1;" parent="mvioNwK95yMqdUQ73LqQ-36" edge="1">
                    <mxGeometry width="50" height="50" relative="1" as="geometry">
                        <mxPoint x="336.25" y="2298" as="sourcePoint"/>
                        <mxPoint x="466.25" y="2308" as="targetPoint"/>
                    </mxGeometry>
                </mxCell>
                <mxCell id="302" value="" style="endArrow=none;html=1;entryX=0.47;entryY=1.039;entryDx=0;entryDy=0;entryPerimeter=0;" parent="mvioNwK95yMqdUQ73LqQ-36" target="293" edge="1">
                    <mxGeometry width="50" height="50" relative="1" as="geometry">
                        <mxPoint x="466.25" y="2308" as="sourcePoint"/>
                        <mxPoint x="436.25" y="2278" as="targetPoint"/>
                    </mxGeometry>
                </mxCell>
                <mxCell id="304" value="&lt;div&gt;TTT/10=TB&lt;/div&gt;&lt;div&gt;TB X 10-TTT=TTB&lt;/div&gt;" style="rounded=0;whiteSpace=wrap;html=1;" parent="mvioNwK95yMqdUQ73LqQ-36" vertex="1">
                    <mxGeometry x="268.25" y="2448" width="120" height="60" as="geometry"/>
                </mxCell>
                <mxCell id="305" value="" style="edgeStyle=segmentEdgeStyle;endArrow=classic;html=1;curved=0;rounded=0;endSize=8;startSize=8;sourcePerimeterSpacing=0;targetPerimeterSpacing=0;" parent="mvioNwK95yMqdUQ73LqQ-36" target="304" edge="1">
                    <mxGeometry width="100" relative="1" as="geometry">
                        <mxPoint x="390.75" y="2378" as="sourcePoint"/>
                        <mxPoint x="1080.75" y="1757" as="targetPoint"/>
                        <Array as="points">
                            <mxPoint x="331.25" y="2378"/>
                        </Array>
                    </mxGeometry>
                </mxCell>
                <mxCell id="306" value="" style="edgeStyle=segmentEdgeStyle;endArrow=classic;html=1;curved=0;rounded=0;endSize=8;startSize=8;sourcePerimeterSpacing=0;targetPerimeterSpacing=0;entryX=0.47;entryY=0.039;entryDx=0;entryDy=0;entryPerimeter=0;" parent="mvioNwK95yMqdUQ73LqQ-36" edge="1">
                    <mxGeometry width="100" relative="1" as="geometry">
                        <mxPoint x="473.25" y="2378" as="sourcePoint"/>
                        <mxPoint x="601.5" y="2449.5600000000004" as="targetPoint"/>
                        <Array as="points">
                            <mxPoint x="603.25" y="2378"/>
                            <mxPoint x="603.25" y="2418"/>
                            <mxPoint x="601.25" y="2418"/>
                        </Array>
                    </mxGeometry>
                </mxCell>
                <mxCell id="307" value="F" style="text;html=1;align=center;verticalAlign=middle;resizable=0;points=[];autosize=1;strokeColor=none;fillColor=none;" parent="mvioNwK95yMqdUQ73LqQ-36" vertex="1">
                    <mxGeometry x="523.25" y="2388" width="30" height="30" as="geometry"/>
                </mxCell>
                <mxCell id="308" value="" style="shape=waypoint;sketch=0;size=6;pointerEvents=1;points=[];fillColor=none;resizable=0;rotatable=0;perimeter=centerPerimeter;snapToPoint=1;" parent="mvioNwK95yMqdUQ73LqQ-36" vertex="1">
                    <mxGeometry x="458.25" y="2568" width="20" height="20" as="geometry"/>
                </mxCell>
                <mxCell id="309" value="" style="endArrow=classic;html=1;exitX=0.467;exitY=0.828;exitDx=0;exitDy=0;exitPerimeter=0;entryX=0.518;entryY=-0.017;entryDx=0;entryDy=0;entryPerimeter=0;" parent="mvioNwK95yMqdUQ73LqQ-36" source="308" target="328" edge="1">
                    <mxGeometry width="50" height="50" relative="1" as="geometry">
                        <mxPoint x="1093.25" y="1937" as="sourcePoint"/>
                        <mxPoint x="391.25" y="2638" as="targetPoint"/>
                    </mxGeometry>
                </mxCell>
                <mxCell id="310" value="" style="endArrow=none;html=1;exitX=0.625;exitY=1;exitDx=0;exitDy=0;exitPerimeter=0;" parent="mvioNwK95yMqdUQ73LqQ-36" source="304" edge="1">
                    <mxGeometry width="50" height="50" relative="1" as="geometry">
                        <mxPoint x="393.25" y="2598" as="sourcePoint"/>
                        <mxPoint x="343.25" y="2568" as="targetPoint"/>
                    </mxGeometry>
                </mxCell>
                <mxCell id="311" value="" style="endArrow=none;html=1;" parent="mvioNwK95yMqdUQ73LqQ-36" edge="1">
                    <mxGeometry width="50" height="50" relative="1" as="geometry">
                        <mxPoint x="343.25" y="2568" as="sourcePoint"/>
                        <mxPoint x="473.25" y="2578" as="targetPoint"/>
                    </mxGeometry>
                </mxCell>
                <mxCell id="312" value="" style="endArrow=none;html=1;entryX=0.6;entryY=1;entryDx=0;entryDy=0;entryPerimeter=0;" parent="mvioNwK95yMqdUQ73LqQ-36" target="313" edge="1">
                    <mxGeometry width="50" height="50" relative="1" as="geometry">
                        <mxPoint x="473.25" y="2578" as="sourcePoint"/>
                        <mxPoint x="581.25" y="2508" as="targetPoint"/>
                    </mxGeometry>
                </mxCell>
                <mxCell id="328" value="TTB&amp;gt;=5" style="rhombus;whiteSpace=wrap;html=1;" parent="mvioNwK95yMqdUQ73LqQ-36" vertex="1">
                    <mxGeometry x="350.5" y="2647" width="80" height="80" as="geometry"/>
                </mxCell>
                <mxCell id="329" value="FB=0" style="whiteSpace=wrap;html=1;" parent="mvioNwK95yMqdUQ73LqQ-36" vertex="1">
                    <mxGeometry x="499.25" y="2757" width="100" height="40" as="geometry"/>
                </mxCell>
                <mxCell id="330" value="T" style="text;html=1;align=center;verticalAlign=middle;resizable=0;points=[];autosize=1;strokeColor=none;fillColor=none;" parent="mvioNwK95yMqdUQ73LqQ-36" vertex="1">
                    <mxGeometry x="249.25" y="2697" width="30" height="30" as="geometry"/>
                </mxCell>
                <mxCell id="331" value="&lt;div&gt;TTH/5=FB&lt;/div&gt;&lt;div&gt;FB X 5-TTB=TFB&lt;/div&gt;" style="rounded=0;whiteSpace=wrap;html=1;" parent="mvioNwK95yMqdUQ73LqQ-36" vertex="1">
                    <mxGeometry x="226.25" y="2757" width="120" height="60" as="geometry"/>
                </mxCell>
                <mxCell id="332" value="" style="edgeStyle=segmentEdgeStyle;endArrow=classic;html=1;curved=0;rounded=0;endSize=8;startSize=8;sourcePerimeterSpacing=0;targetPerimeterSpacing=0;" parent="mvioNwK95yMqdUQ73LqQ-36" target="331" edge="1">
                    <mxGeometry width="100" relative="1" as="geometry">
                        <mxPoint x="348.75" y="2687" as="sourcePoint"/>
                        <mxPoint x="1038.75" y="2066" as="targetPoint"/>
                        <Array as="points">
                            <mxPoint x="289.25" y="2687"/>
                        </Array>
                    </mxGeometry>
                </mxCell>
                <mxCell id="333" value="" style="edgeStyle=segmentEdgeStyle;endArrow=classic;html=1;curved=0;rounded=0;endSize=8;startSize=8;sourcePerimeterSpacing=0;targetPerimeterSpacing=0;entryX=0.47;entryY=0.039;entryDx=0;entryDy=0;entryPerimeter=0;" parent="mvioNwK95yMqdUQ73LqQ-36" edge="1">
                    <mxGeometry width="100" relative="1" as="geometry">
                        <mxPoint x="431.25" y="2687" as="sourcePoint"/>
                        <mxPoint x="559.5" y="2758.5600000000004" as="targetPoint"/>
                        <Array as="points">
                            <mxPoint x="561.25" y="2687"/>
                            <mxPoint x="561.25" y="2727"/>
                            <mxPoint x="559.25" y="2727"/>
                        </Array>
                    </mxGeometry>
                </mxCell>
                <mxCell id="334" value="F" style="text;html=1;align=center;verticalAlign=middle;resizable=0;points=[];autosize=1;strokeColor=none;fillColor=none;" parent="mvioNwK95yMqdUQ73LqQ-36" vertex="1">
                    <mxGeometry x="481.25" y="2697" width="30" height="30" as="geometry"/>
                </mxCell>
                <mxCell id="335" value="" style="shape=waypoint;sketch=0;size=6;pointerEvents=1;points=[];fillColor=none;resizable=0;rotatable=0;perimeter=centerPerimeter;snapToPoint=1;" parent="mvioNwK95yMqdUQ73LqQ-36" vertex="1">
                    <mxGeometry x="416.25" y="2877" width="20" height="20" as="geometry"/>
                </mxCell>
                <mxCell id="336" value="" style="endArrow=classic;html=1;exitX=0.467;exitY=0.828;exitDx=0;exitDy=0;exitPerimeter=0;" parent="mvioNwK95yMqdUQ73LqQ-36" source="335" edge="1">
                    <mxGeometry width="50" height="50" relative="1" as="geometry">
                        <mxPoint x="1051.25" y="2246" as="sourcePoint"/>
                        <mxPoint x="349.25" y="2947" as="targetPoint"/>
                    </mxGeometry>
                </mxCell>
                <mxCell id="337" value="" style="endArrow=none;html=1;exitX=0.625;exitY=1;exitDx=0;exitDy=0;exitPerimeter=0;" parent="mvioNwK95yMqdUQ73LqQ-36" source="331" edge="1">
                    <mxGeometry width="50" height="50" relative="1" as="geometry">
                        <mxPoint x="351.25" y="2907" as="sourcePoint"/>
                        <mxPoint x="301.25" y="2877" as="targetPoint"/>
                    </mxGeometry>
                </mxCell>
                <mxCell id="338" value="" style="endArrow=none;html=1;" parent="mvioNwK95yMqdUQ73LqQ-36" edge="1">
                    <mxGeometry width="50" height="50" relative="1" as="geometry">
                        <mxPoint x="301.25" y="2877" as="sourcePoint"/>
                        <mxPoint x="431.25" y="2887" as="targetPoint"/>
                    </mxGeometry>
                </mxCell>
                <mxCell id="339" value="" style="endArrow=none;html=1;entryX=0.6;entryY=1;entryDx=0;entryDy=0;entryPerimeter=0;" parent="mvioNwK95yMqdUQ73LqQ-36" target="329" edge="1">
                    <mxGeometry width="50" height="50" relative="1" as="geometry">
                        <mxPoint x="431.25" y="2887" as="sourcePoint"/>
                        <mxPoint x="539.25" y="2817" as="targetPoint"/>
                    </mxGeometry>
                </mxCell>
                <mxCell id="340" value="OB=0" style="whiteSpace=wrap;html=1;" parent="mvioNwK95yMqdUQ73LqQ-36" vertex="1">
                    <mxGeometry x="460.25" y="3057" width="100" height="40" as="geometry"/>
                </mxCell>
                <mxCell id="341" value="T" style="text;html=1;align=center;verticalAlign=middle;resizable=0;points=[];autosize=1;strokeColor=none;fillColor=none;" parent="mvioNwK95yMqdUQ73LqQ-36" vertex="1">
                    <mxGeometry x="210.25" y="2997" width="30" height="30" as="geometry"/>
                </mxCell>
                <mxCell id="342" value="&lt;div&gt;TFB/1=OB&lt;/div&gt;&lt;div&gt;OB X 1-TFB=TOB&lt;/div&gt;" style="rounded=0;whiteSpace=wrap;html=1;" parent="mvioNwK95yMqdUQ73LqQ-36" vertex="1">
                    <mxGeometry x="187.25" y="3057" width="120" height="60" as="geometry"/>
                </mxCell>
                <mxCell id="343" value="" style="edgeStyle=segmentEdgeStyle;endArrow=classic;html=1;curved=0;rounded=0;endSize=8;startSize=8;sourcePerimeterSpacing=0;targetPerimeterSpacing=0;" parent="mvioNwK95yMqdUQ73LqQ-36" target="342" edge="1">
                    <mxGeometry width="100" relative="1" as="geometry">
                        <mxPoint x="309.75" y="2987" as="sourcePoint"/>
                        <mxPoint x="999.75" y="2366" as="targetPoint"/>
                        <Array as="points">
                            <mxPoint x="250.25" y="2987"/>
                        </Array>
                    </mxGeometry>
                </mxCell>
                <mxCell id="344" value="" style="edgeStyle=segmentEdgeStyle;endArrow=classic;html=1;curved=0;rounded=0;endSize=8;startSize=8;sourcePerimeterSpacing=0;targetPerimeterSpacing=0;entryX=0.47;entryY=0.039;entryDx=0;entryDy=0;entryPerimeter=0;" parent="mvioNwK95yMqdUQ73LqQ-36" edge="1">
                    <mxGeometry width="100" relative="1" as="geometry">
                        <mxPoint x="392.25" y="2987" as="sourcePoint"/>
                        <mxPoint x="520.5" y="3058.5600000000004" as="targetPoint"/>
                        <Array as="points">
                            <mxPoint x="522.25" y="2987"/>
                            <mxPoint x="522.25" y="3027"/>
                            <mxPoint x="520.25" y="3027"/>
                        </Array>
                    </mxGeometry>
                </mxCell>
                <mxCell id="346" value="" style="shape=waypoint;sketch=0;size=6;pointerEvents=1;points=[];fillColor=none;resizable=0;rotatable=0;perimeter=centerPerimeter;snapToPoint=1;" parent="mvioNwK95yMqdUQ73LqQ-36" vertex="1">
                    <mxGeometry x="377.25" y="3177" width="20" height="20" as="geometry"/>
                </mxCell>
                <mxCell id="347" value="" style="endArrow=classic;html=1;exitX=0.467;exitY=0.828;exitDx=0;exitDy=0;exitPerimeter=0;" parent="mvioNwK95yMqdUQ73LqQ-36" source="346" edge="1">
                    <mxGeometry width="50" height="50" relative="1" as="geometry">
                        <mxPoint x="1012.25" y="2546" as="sourcePoint"/>
                        <mxPoint x="371.25" y="3258" as="targetPoint"/>
                    </mxGeometry>
                </mxCell>
                <mxCell id="348" value="" style="endArrow=none;html=1;exitX=0.625;exitY=1;exitDx=0;exitDy=0;exitPerimeter=0;" parent="mvioNwK95yMqdUQ73LqQ-36" source="342" edge="1">
                    <mxGeometry width="50" height="50" relative="1" as="geometry">
                        <mxPoint x="312.25" y="3207" as="sourcePoint"/>
                        <mxPoint x="262.25" y="3177" as="targetPoint"/>
                    </mxGeometry>
                </mxCell>
                <mxCell id="349" value="" style="endArrow=none;html=1;" parent="mvioNwK95yMqdUQ73LqQ-36" edge="1">
                    <mxGeometry width="50" height="50" relative="1" as="geometry">
                        <mxPoint x="262.25" y="3177" as="sourcePoint"/>
                        <mxPoint x="392.25" y="3187" as="targetPoint"/>
                    </mxGeometry>
                </mxCell>
                <mxCell id="350" value="" style="endArrow=none;html=1;entryX=0.6;entryY=1;entryDx=0;entryDy=0;entryPerimeter=0;" parent="mvioNwK95yMqdUQ73LqQ-36" target="340" edge="1">
                    <mxGeometry width="50" height="50" relative="1" as="geometry">
                        <mxPoint x="392.25" y="3187" as="sourcePoint"/>
                        <mxPoint x="500.25" y="3117" as="targetPoint"/>
                    </mxGeometry>
                </mxCell>
                <mxCell id="357" value="" style="endArrow=classic;html=1;exitX=0.459;exitY=0.988;exitDx=0;exitDy=0;exitPerimeter=0;" parent="mvioNwK95yMqdUQ73LqQ-36" source="355" edge="1">
                    <mxGeometry width="50" height="50" relative="1" as="geometry">
                        <mxPoint x="301.25" y="1548" as="sourcePoint"/>
                        <mxPoint x="111.25" y="4358" as="targetPoint"/>
                    </mxGeometry>
                </mxCell>
                <mxCell id="369" value="" style="endArrow=none;html=1;entryX=0.473;entryY=1.019;entryDx=0;entryDy=0;entryPerimeter=0;startArrow=none;" parent="mvioNwK95yMqdUQ73LqQ-36" source="371" target="365" edge="1">
                    <mxGeometry width="50" height="50" relative="1" as="geometry">
                        <mxPoint x="111.25" y="4328" as="sourcePoint"/>
                        <mxPoint x="371.25" y="4348" as="targetPoint"/>
                        <Array as="points">
                            <mxPoint x="350" y="4328"/>
                        </Array>
                    </mxGeometry>
                </mxCell>
                <mxCell id="372" value="" style="endArrow=none;html=1;entryDx=0;entryDy=0;entryPerimeter=0;" parent="mvioNwK95yMqdUQ73LqQ-36" target="371" edge="1">
                    <mxGeometry width="50" height="50" relative="1" as="geometry">
                        <mxPoint x="111.25" y="4328" as="sourcePoint"/>
                        <mxPoint x="350.3799999999999" y="4232.4389999999985" as="targetPoint"/>
                    </mxGeometry>
                </mxCell>
                <mxCell id="371" value="" style="shape=waypoint;sketch=0;size=6;pointerEvents=1;points=[];fillColor=none;resizable=0;rotatable=0;perimeter=centerPerimeter;snapToPoint=1;" parent="mvioNwK95yMqdUQ73LqQ-36" vertex="1">
                    <mxGeometry x="101.25" y="4318" width="20" height="20" as="geometry"/>
                </mxCell>
                <mxCell id="376" value="" style="edgeStyle=none;html=1;" edge="1" parent="mvioNwK95yMqdUQ73LqQ-36" source="373" target="205">
                    <mxGeometry relative="1" as="geometry"/>
                </mxCell>
                <mxCell id="373" value="35=A 25=B 10=C 5=O 20=E 50=F 0=G H=จำนวนสินค้าที่ลูกค้าเลือก &lt;br&gt;F=AXH, FRATE=BXH,&amp;nbsp;FPAO=CXH,&amp;nbsp;FSUNSS=OXH,&amp;nbsp;FFOY=EXH,&amp;nbsp;FLUMYAI=JXH&amp;nbsp;&lt;br&gt;MANYMAGA=50, MANYRATE=50,&amp;nbsp;MANYPAO=50,&amp;nbsp;MANYSUNSS=50,&amp;nbsp;MANYFOY=50,&amp;nbsp;MANYLUMYAI=50&lt;br&gt;MANYFH=500,&amp;nbsp;MANYOH=500,&amp;nbsp;MANYFT=500,&amp;nbsp;MANYTT=500,&amp;nbsp;MANYTB=500,&amp;nbsp;MANYFB=500,&amp;nbsp;MANYOB=500&lt;br&gt;PFMAGA=5,&amp;nbsp;PFRATE=6,&amp;nbsp;PFPAO=2,&amp;nbsp;PFSUNCC=3,&amp;nbsp;PFPOY=7,&amp;nbsp;PFLUMYAI=10&amp;nbsp;" style="whiteSpace=wrap;html=1;" vertex="1" parent="mvioNwK95yMqdUQ73LqQ-36">
                    <mxGeometry x="52.809999999999995" y="508" width="586.88" height="79" as="geometry"/>
                </mxCell>
                <mxCell id="396" value="" style="edgeStyle=none;html=1;" edge="1" parent="mvioNwK95yMqdUQ73LqQ-36" source="377" target="395">
                    <mxGeometry relative="1" as="geometry"/>
                </mxCell>
                <mxCell id="377" value="" style="shape=parallelogram;perimeter=parallelogramPerimeter;whiteSpace=wrap;html=1;fixedSize=1;" vertex="1" parent="mvioNwK95yMqdUQ73LqQ-36">
                    <mxGeometry x="193.75" y="99.5" width="265" height="260" as="geometry"/>
                </mxCell>
                <mxCell id="386" value="&lt;span style=&quot;font-family: Sarabun; font-size: 14px; text-align: left;&quot;&gt;กาแฟอเมริกาโน่ร้อน 35บาท&lt;/span&gt;" style="text;strokeColor=none;align=center;fillColor=none;html=1;verticalAlign=middle;whiteSpace=wrap;rounded=0;" vertex="1" parent="mvioNwK95yMqdUQ73LqQ-36">
                    <mxGeometry x="231.25" y="169.5" width="185" height="30" as="geometry"/>
                </mxCell>
                <mxCell id="387" value="&lt;div style=&quot;text-align: left;&quot;&gt;&lt;span style=&quot;background-color: initial; font-size: 14px;&quot;&gt;&lt;font face=&quot;Sarabun&quot;&gt;เ&lt;/font&gt;&lt;/span&gt;&lt;span style=&quot;font-family: Sarabun; background-color: initial; font-size: 14px;&quot;&gt;ครื่องดื่ม&lt;/span&gt;&lt;/div&gt;" style="text;strokeColor=none;align=center;fillColor=none;html=1;verticalAlign=middle;whiteSpace=wrap;rounded=0;" vertex="1" parent="mvioNwK95yMqdUQ73LqQ-36">
                    <mxGeometry x="263.75" y="139.5" width="120" height="30" as="geometry"/>
                </mxCell>
                <mxCell id="388" value="&lt;span style=&quot;font-family: Sarabun; font-size: 14px; text-align: left;&quot;&gt;ลาเต้เย็น 45 บาท&lt;/span&gt;&lt;span style=&quot;color: rgba(0, 0, 0, 0); font-family: monospace; font-size: 0px; text-align: start;&quot;&gt;%3CmxGraphModel%3E%3Croot%3E%3CmxCell%20id%3D%220%22%2F%3E%3CmxCell%20id%3D%221%22%20parent%3D%220%22%2F%3E%3CmxCell%20id%3D%222%22%20value%3D%22%26lt%3Bspan%20style%3D%26quot%3Bfont-family%3A%20Sarabun%3B%20font-size%3A%2014px%3B%20text-align%3A%20left%3B%26quot%3B%26gt%3B%E0%B8%81%E0%B8%B2%E0%B9%81%E0%B8%9F%E0%B8%AD%E0%B9%80%E0%B8%A1%E0%B8%A3%E0%B8%B4%E0%B8%81%E0%B8%B2%E0%B9%82%E0%B8%99%E0%B9%88%E0%B8%A3%E0%B9%89%E0%B8%AD%E0%B8%99%26lt%3B%2Fspan%26gt%3B%22%20style%3D%22text%3BstrokeColor%3Dnone%3Balign%3Dcenter%3BfillColor%3Dnone%3Bhtml%3D1%3BverticalAlign%3Dmiddle%3BwhiteSpace%3Dwrap%3Brounded%3D0%3B%22%20vertex%3D%221%22%20parent%3D%221%22%3E%3CmxGeometry%20x%3D%22-452.5%22%20y%3D%22810%22%20width%3D%22120%22%20height%3D%2230%22%20as%3D%22geometry%22%2F%3E%3C%2FmxCell%3E%3C%2Froot%3E%3C%2FmxGraphModel%3E&lt;/span&gt;" style="text;strokeColor=none;align=center;fillColor=none;html=1;verticalAlign=middle;whiteSpace=wrap;rounded=0;" vertex="1" parent="mvioNwK95yMqdUQ73LqQ-36">
                    <mxGeometry x="258.75" y="199.5" width="120" height="30" as="geometry"/>
                </mxCell>
                <mxCell id="389" value="&lt;span style=&quot;font-family: Sarabun; font-size: 14px; text-align: left;&quot;&gt;น้ำเปล่า 10 บาท&lt;/span&gt;" style="text;strokeColor=none;align=center;fillColor=none;html=1;verticalAlign=middle;whiteSpace=wrap;rounded=0;" vertex="1" parent="mvioNwK95yMqdUQ73LqQ-36">
                    <mxGeometry x="258.75" y="229.5" width="120" height="30" as="geometry"/>
                </mxCell>
                <mxCell id="390" value="&lt;div style=&quot;text-align: left;&quot;&gt;&lt;span style=&quot;background-color: initial; font-size: 14px;&quot;&gt;&lt;font face=&quot;Sarabun&quot;&gt;ขนม&lt;/font&gt;&lt;/span&gt;&lt;/div&gt;" style="text;strokeColor=none;align=center;fillColor=none;html=1;verticalAlign=middle;whiteSpace=wrap;rounded=0;" vertex="1" parent="mvioNwK95yMqdUQ73LqQ-36">
                    <mxGeometry x="258.75" y="266.5" width="120" height="30" as="geometry"/>
                </mxCell>
                <mxCell id="391" value="&lt;div style=&quot;text-align: left;&quot;&gt;&lt;font face=&quot;Sarabun&quot;&gt;&lt;span style=&quot;font-size: 14px;&quot;&gt;ขนมชั้น 5 บาท&lt;/span&gt;&lt;/font&gt;&lt;/div&gt;" style="text;strokeColor=none;align=center;fillColor=none;html=1;verticalAlign=middle;whiteSpace=wrap;rounded=0;" vertex="1" parent="mvioNwK95yMqdUQ73LqQ-36">
                    <mxGeometry x="258.75" y="290.5" width="120" height="30" as="geometry"/>
                </mxCell>
                <mxCell id="392" value="&lt;div style=&quot;text-align: left;&quot;&gt;&lt;font face=&quot;Sarabun&quot;&gt;&lt;span style=&quot;font-size: 14px;&quot;&gt;ฝอยทอง 15 บาท&lt;/span&gt;&lt;/font&gt;&lt;/div&gt;" style="text;strokeColor=none;align=center;fillColor=none;html=1;verticalAlign=middle;whiteSpace=wrap;rounded=0;" vertex="1" parent="mvioNwK95yMqdUQ73LqQ-36">
                    <mxGeometry x="258.75" y="309.5" width="120" height="30" as="geometry"/>
                </mxCell>
                <mxCell id="393" value="&lt;div style=&quot;text-align: left;&quot;&gt;&lt;span style=&quot;background-color: initial; font-size: 14px;&quot;&gt;&lt;font face=&quot;Sarabun&quot;&gt;ลำไยอบแห้ง 50 บาท&lt;/font&gt;&lt;/span&gt;&lt;/div&gt;" style="text;strokeColor=none;align=center;fillColor=none;html=1;verticalAlign=middle;whiteSpace=wrap;rounded=0;" vertex="1" parent="mvioNwK95yMqdUQ73LqQ-36">
                    <mxGeometry x="258.75" y="329.5" width="120" height="30" as="geometry"/>
                </mxCell>
                <mxCell id="394" value="กรุณาเลือกสินค้าและจำนวนที่ต้องการ" style="text;html=1;align=center;verticalAlign=middle;resizable=0;points=[];autosize=1;strokeColor=none;fillColor=none;" vertex="1" parent="mvioNwK95yMqdUQ73LqQ-36">
                    <mxGeometry x="221.25" y="109.5" width="210" height="30" as="geometry"/>
                </mxCell>
                <mxCell id="398" value="" style="edgeStyle=none;html=1;" edge="1" parent="mvioNwK95yMqdUQ73LqQ-36" source="395" target="397">
                    <mxGeometry relative="1" as="geometry"/>
                </mxCell>
                <mxCell id="395" value="ตกลง" style="shape=parallelogram;perimeter=parallelogramPerimeter;whiteSpace=wrap;html=1;fixedSize=1;" vertex="1" parent="mvioNwK95yMqdUQ73LqQ-36">
                    <mxGeometry x="278.13" y="379" width="96.25" height="31" as="geometry"/>
                </mxCell>
                <mxCell id="397" value="ลูกค้ากดตกลง?" style="rhombus;whiteSpace=wrap;html=1;" vertex="1" parent="mvioNwK95yMqdUQ73LqQ-36">
                    <mxGeometry x="279.25" y="429" width="96.25" height="70" as="geometry"/>
                </mxCell>
                <mxCell id="403" value="" style="endArrow=classic;html=1;entryX=0.646;entryY=0.008;entryDx=0;entryDy=0;entryPerimeter=0;exitX=0.995;exitY=0.52;exitDx=0;exitDy=0;exitPerimeter=0;" edge="1" parent="mvioNwK95yMqdUQ73LqQ-36" source="397" target="373">
                    <mxGeometry width="50" height="50" relative="1" as="geometry">
                        <mxPoint x="260" y="459" as="sourcePoint"/>
                        <mxPoint x="310" y="409" as="targetPoint"/>
                        <Array as="points">
                            <mxPoint x="432" y="465"/>
                        </Array>
                    </mxGeometry>
                </mxCell>
                <mxCell id="404" value="Y" style="text;html=1;strokeColor=none;fillColor=none;align=center;verticalAlign=middle;whiteSpace=wrap;rounded=0;" vertex="1" parent="mvioNwK95yMqdUQ73LqQ-36">
                    <mxGeometry x="381.25" y="439" width="60" height="30" as="geometry"/>
                </mxCell>
                <mxCell id="406" value="N" style="text;html=1;strokeColor=none;fillColor=none;align=center;verticalAlign=middle;whiteSpace=wrap;rounded=0;" vertex="1" parent="mvioNwK95yMqdUQ73LqQ-36">
                    <mxGeometry x="133.75" y="419" width="60" height="30" as="geometry"/>
                </mxCell>
                <mxCell id="mvioNwK95yMqdUQ73LqQ-70" value="&lt;font data-font-src=&quot;https://fonts.googleapis.com/css?family=Sarabun&quot; face=&quot;Sarabun&quot;&gt;โจทย์ปัญหา&lt;/font&gt;" style="swimlane;whiteSpace=wrap;html=1;" parent="WIyWlLk6GJQsqaUBKTNV-1" vertex="1">
                    <mxGeometry x="-720" y="320" width="645" height="310" as="geometry"/>
                </mxCell>
                <mxCell id="mvioNwK95yMqdUQ73LqQ-71" value="&lt;p style=&quot;line-height: 120%;&quot;&gt;&lt;font data-font-src=&quot;https://fonts.googleapis.com/css?family=Sarabun&quot; face=&quot;Sarabun&quot; style=&quot;font-size: 14px;&quot;&gt;&lt;b&gt;&lt;u&gt;โจทย์&lt;/u&gt;&lt;/b&gt; จงเขียน Flowchart เพื่อแสดงขั้นตอนการทำงาน ของเครื่องขายน้ำอัตโนมัติ โดยเครื่องมีการทำงานดังนี้&lt;br&gt;&amp;nbsp; &amp;nbsp; - เครื่องมีสินค้าประเภท &quot;เครื่องดื่ม&quot; อยู่ 3 อย่างคือ กาแฟอเมริกาโน่ร้อน , ลาเต้เย็น , น้ำเปล่า&lt;br&gt;&amp;nbsp; &amp;nbsp; - เครื่องมีสินค้าประเภท &quot;ขนม&quot; อยู่ 3 อย่างคือ ขนมชั้น, ฝอยทอง, ลำไยอบแห้ง&lt;br&gt;&amp;nbsp; &amp;nbsp; - เครื่องสามารถทอนเงินลูกค้าได้ทั้ง เหรียญ และ ธนบัตร (โดยจะต้องเลือกทอนเงินด้วยธนบัตรใหญ่ก่อน)&lt;br&gt;&lt;/font&gt;&lt;span style=&quot;font-family: Sarabun; background-color: initial;&quot;&gt;&amp;nbsp; &amp;nbsp; &amp;nbsp; &amp;nbsp;กรณีที่มีเงินทอนไม่พอ ให้แจ้งลูกค้าก่อนซื้อสินค้าว่า &quot;เครื่องไม่มีเงิน&quot;&lt;br&gt;&amp;nbsp; &amp;nbsp; -&amp;nbsp; เครื่องสามารถแสดงจำนวนสินค้าคงเหลือ ราคาสินค้า จำนวนสินค้าที่ลูกค้าสั่ง และรวมราคาที่ลูกค้าต้องจ่าย&lt;br&gt;&lt;/span&gt;&lt;span style=&quot;font-family: Sarabun; background-color: initial;&quot;&gt;&lt;b&gt;&lt;u&gt;เหตุการณ์&lt;/u&gt;&lt;/b&gt;&lt;br&gt;&amp;nbsp; &amp;nbsp; &lt;b&gt;ลูกค้า&lt;/b&gt;สามารถเลือกสินค้ากี่ชิ้นก็ได้ จนกว่าลูกค้าจะพอใจ เมื่อพอใจแล้ว สามารถกดปุ่ม &quot;ตกลง&quot; เพื่อคำนวณ&lt;br&gt;ยอดเงินทั้งหมดที่ลูกค้าต้องชำระ และลูกค้าต้องใส่เงินไปตามจำนวน(หรือมากกว่า) เพื่อทำการชำระสินค้า&lt;br&gt;และตู้ก็จะทอนเงินให้ลูกค้า พร้อมส่งสินค้าให้ลูกค้า&lt;br&gt;&amp;nbsp; &amp;nbsp; &lt;b&gt;แอ็ดมิน&lt;/b&gt;สามารถได้รับการแจ้งเตือนทุกครั้งที่มีลูกค้ากดซื้อสินค้าหน้าตู้ โดยจะมีข้อมูลสรุปกำไรทั้งหมด จำนวน&lt;br&gt;เงินทอนคงเหลือ(ว่าเหลือแต่ละเหรียญและธนบัตรอยู่ทั้งหมดอย่างละเท่าไหร่)&lt;/span&gt;&lt;/p&gt;" style="text;html=1;align=left;verticalAlign=top;resizable=0;points=[];autosize=1;strokeColor=none;fillColor=none;fontSize=14;" parent="mvioNwK95yMqdUQ73LqQ-70" vertex="1">
                    <mxGeometry x="15" y="20" width="630" height="260" as="geometry"/>
                </mxCell>
                <mxCell id="402" value="" style="endArrow=none;html=1;entryX=0.014;entryY=0.474;entryDx=0;entryDy=0;entryPerimeter=0;" edge="1" parent="WIyWlLk6GJQsqaUBKTNV-1" target="397">
                    <mxGeometry width="50" height="50" relative="1" as="geometry">
                        <mxPoint x="-680" y="1123" as="sourcePoint"/>
                        <mxPoint x="-390" y="1070" as="targetPoint"/>
                    </mxGeometry>
                </mxCell>
                <mxCell id="405" value="" style="endArrow=classic;html=1;" edge="1" parent="WIyWlLk6GJQsqaUBKTNV-1" target="371">
                    <mxGeometry width="50" height="50" relative="1" as="geometry">
                        <mxPoint x="-680" y="1120" as="sourcePoint"/>
                        <mxPoint x="-660" y="1310" as="targetPoint"/>
                        <Array as="points">
                            <mxPoint x="-690" y="4410"/>
                            <mxPoint x="-690" y="4990"/>
                        </Array>
                    </mxGeometry>
                </mxCell>
            </root>
        </mxGraphModel>
    </diagram>
</mxfile>